<svg id="svg" xmlns="http://www.w3.org/2000/svg" xmlns:xlink="http://www.w3.org/1999/xlink" viewBox="0, 0, 400,398.97172236503854"><g id="svgg"><style>.cls-1{fill:#fed136;}</style><path class="cls-1"  d="M183.290 3.404 C 143.129 7.439,111.580 19.330,81.234 41.867 C 15.070 91.006,-13.316 176.161,9.839 256.041 C 30.212 326.325,90.827 380.866,162.982 393.837 C 192.972 399.229,226.011 397.540,255.013 389.133 C 321.656 369.815,374.894 313.685,390.754 246.015 C 398.446 213.198,397.489 176.332,388.105 143.959 C 367.890 74.223,307.435 19.448,236.247 6.370 C 222.175 3.785,194.776 2.250,183.290 3.404 M220.566 9.491 C 341.694 23.927,419.252 145.411,380.758 260.411 C 345.336 366.236,226.357 420.242,124.727 376.627 C -3.969 321.396,-33.203 154.456,69.152 59.265 C 101.481 29.198,138.280 13.411,187.404 8.534 C 191.993 8.078,214.054 8.715,220.566 9.491 M128.574 53.259 L 126.992 54.590 126.992 72.282 L 126.992 89.974 199.229 89.974 L 271.465 89.974 271.465 73.762 C 271.465 56.153,271.330 55.166,268.630 53.043 L 267.214 51.928 198.685 51.928 L 130.156 51.928 128.574 53.259 M155.465 65.627 C 161.088 68.308,158.633 76.648,152.442 75.897 C 147.035 75.242,145.852 68.336,150.704 65.751 C 152.877 64.593,153.276 64.583,155.465 65.627 M185.090 65.810 C 188.891 67.749,189.055 72.887,185.388 75.123 C 180.573 78.059,175.275 73.290,177.701 68.203 C 179.164 65.134,181.979 64.223,185.090 65.810 M126.992 147.512 L 126.992 194.253 128.574 195.584 L 130.156 196.915 198.907 196.915 L 267.658 196.915 269.561 194.965 L 271.465 193.016 271.465 146.893 L 271.465 100.771 199.229 100.771 L 126.992 100.771 126.992 147.512 M207.512 124.293 C 207.364 124.788,204.562 134.679,201.285 146.272 C 192.413 177.664,193.597 174.293,191.440 174.293 C 190.124 174.293,189.681 174.100,189.870 173.607 C 190.015 173.230,192.945 162.992,196.382 150.857 C 199.819 138.721,202.981 127.577,203.408 126.093 C 204.156 123.499,204.257 123.393,205.984 123.393 C 207.456 123.393,207.733 123.556,207.512 124.293 M185.090 135.126 L 185.090 137.604 171.712 142.935 C 164.354 145.867,158.406 148.483,158.494 148.748 C 158.583 149.014,164.598 151.688,171.861 154.692 L 185.068 160.154 185.079 162.639 C 185.085 164.006,184.875 165.047,184.612 164.953 C 184.349 164.859,176.943 161.774,168.153 158.098 L 152.172 151.414 152.307 148.897 L 152.442 146.380 168.638 139.532 C 177.545 135.766,184.891 132.676,184.961 132.666 C 185.032 132.656,185.090 133.763,185.090 135.126 M245.129 148.879 L 245.271 151.414 229.999 157.841 C 221.599 161.375,214.305 164.433,213.790 164.636 C 212.963 164.962,212.853 164.718,212.853 162.555 L 212.853 160.105 225.799 154.713 C 239.096 149.175,240.153 148.550,237.684 147.686 C 236.894 147.409,230.983 145.042,224.550 142.426 L 212.853 137.669 212.853 135.213 L 212.853 132.758 228.920 139.551 L 244.987 146.344 245.129 148.879 M99.869 268.758 L 100.000 315.938 112.339 316.083 C 119.126 316.163,125.200 316.100,125.838 315.944 L 126.998 315.660 126.866 268.756 L 126.735 221.851 113.236 221.714 L 99.738 221.577 99.869 268.758 M142.028 268.766 L 142.159 315.938 154.949 316.076 C 164.114 316.175,167.944 316.044,168.461 315.614 C 169.055 315.121,169.158 312.567,169.039 301.209 L 168.895 287.403 178.726 287.403 C 187.879 287.404,188.837 287.313,192.608 286.087 C 215.907 278.512,222.568 248.721,204.905 231.093 C 195.911 222.116,193.694 221.594,164.576 221.594 L 141.897 221.594 142.028 268.766 M223.993 221.937 C 223.805 222.125,223.650 243.290,223.650 268.970 L 223.650 315.662 224.807 315.945 C 225.443 316.101,231.401 316.163,238.046 316.083 L 250.129 315.938 250.265 301.671 L 250.402 287.404 254.729 287.404 L 259.056 287.404 262.672 293.188 C 264.661 296.369,268.673 302.789,271.587 307.455 L 276.885 315.938 291.270 316.063 C 299.182 316.132,305.970 315.987,306.354 315.742 C 306.892 315.397,304.834 311.704,297.405 299.678 C 292.099 291.089,287.426 283.483,287.021 282.776 C 286.309 281.535,286.397 281.375,289.607 278.113 C 307.339 260.086,299.269 229.351,274.985 222.423 C 271.972 221.563,224.816 221.113,223.993 221.937 M184.011 245.989 C 186.730 247.395,187.404 249.090,187.404 254.521 C 187.404 262.584,185.912 263.753,175.629 263.753 L 169.152 263.753 169.152 254.499 L 169.152 245.244 175.861 245.244 C 180.714 245.244,182.969 245.450,184.011 245.989 M268.583 246.321 C 271.972 248.987,273.058 255.299,270.914 259.862 C 269.278 263.341,267.954 263.753,258.406 263.753 L 250.386 263.753 250.386 254.499 L 250.386 245.244 258.800 245.244 C 266.562 245.244,267.320 245.328,268.583 246.321 " ></path></g></svg>